<svg width="352" height="252" viewBox="0 0 352 252" fill="none" xmlns="http://www.w3.org/2000/svg">
<path d="M51 1V0.5H50.5V1H51ZM101 1H101.5V0.5H101V1ZM1 51V50.5H0.5V51H1ZM1 101H0.5V101.5H1V101ZM51 101V101.5H51.5V101H51ZM101 51V51.5H101.5V51H101ZM51 151H51.5V150.5H51V151ZM1 151V150.5H0.5V151H1ZM1 201H0.5V201.5H1V201ZM101 201H101.5V200.5H101V201ZM101 251V251.5H101.5V251H101ZM51 251H50.5V251.5H51V251ZM101 101V100.5H100.5V101H101ZM101 151H100.5V151.5H101V151ZM251 151V151.5H251.5V151H251ZM251 101H251.5V100.5H251V101ZM301 1H301.5V0.5H301V1ZM251 1V0.5H250.5V1H251ZM251 51H250.5V51.5H251V51ZM351 51H351.5V50.5H351V51ZM351 101V101.5H351.5V101H351ZM301 101H300.5V101.5H301V101ZM351 151H351.5V150.5H351V151ZM301 151V150.5H300.5V151H301ZM351 201V201.5H351.5V201H351ZM301 251V251.5H301.5V251H301ZM251 251H250.5V251.5H251V251ZM251 201V200.5H250.5V201H251ZM51 1.5H101V0.5H51V1.5ZM51.5 51V1H50.5V51H51.5ZM1 51.5H51V50.5H1V51.5ZM1.5 101V51H0.5V101H1.5ZM51 100.5H1V101.5H51V100.5ZM50.5 51V101H51.5V51H50.5ZM101 50.5H51V51.5H101V50.5ZM100.5 1V51H101.5V1H100.5ZM51 150.5H1V151.5H51V150.5ZM51.5 201V151H50.5V201H51.5ZM1 201.5H51V200.5H1V201.5ZM0.5 151V201H1.5V151H0.5ZM101 200.5H51V201.5H101V200.5ZM101.5 251V201H100.5V251H101.5ZM51 251.5H101V250.5H51V251.5ZM50.5 201V251H51.5V201H50.5ZM101 101.5H151V100.5H101V101.5ZM101.5 151V101H100.5V151H101.5ZM151 150.5H101V151.5H151V150.5ZM201 150.5H151V151.5H201V150.5ZM251 150.5H201V151.5H251V150.5ZM250.5 101V151H251.5V101H250.5ZM201 101.5H251V100.5H201V101.5ZM151 101.5H201V100.5H151V101.5ZM301 0.5H251V1.5H301V0.5ZM301.5 51V1H300.5V51H301.5ZM251 51.5H301V50.5H251V51.5ZM250.5 1V51H251.5V1H250.5ZM351 50.5H301V51.5H351V50.5ZM351.5 101V51H350.5V101H351.5ZM301 101.5H351V100.5H301V101.5ZM300.5 51V101H301.5V51H300.5ZM351 150.5H301V151.5H351V150.5ZM351.5 201V151H350.5V201H351.5ZM301 201.5H351V200.5H301V201.5ZM300.5 151V201H301.5V151H300.5ZM300.5 201V251H301.5V201H300.5ZM301 250.5H251V251.5H301V250.5ZM251.5 251V201H250.5V251H251.5ZM251 201.5H301V200.5H251V201.5Z" fill="black"/>
</svg>
